PathFileType	4	(X/Y/Z)	./resultDataOpenSim/trcMotMarkerGrf/sub10/qtm-04-05.trc
DataRate	CameraRate	NumFrames	NumMarkers	Units	OrigDataRate	OrigDataStartFrame	OrigNumFrames
250.000000	250.000000	10	24	m	250.000000	62	493
Frame#	Time	L.Toe.Tip			R.Toe.Tip			L.Ankle.Lat			R.Ankle.Lat			L.Ankle.Med			R.Ankle.Med			L.Heel			R.Heel			L.Knee.Lat			R.Knee.Lat			L.Knee.Med			R.Knee.Med			L.Thigh.Upper			R.Thigh.Upper			L.ASIS			R.ASIS			V.Sacral			L.Acromium			R.Acromium			C7			L.Elbow			R.Elbow			L.Wrist.Lat			R.Wrist.Lat
		X1	Y1	Z1	X2	Y2	Z2	X3	Y3	Z3	X4	Y4	Z4	X5	Y5	Z5	X6	Y6	Z6	X7	Y7	Z7	X8	Y8	Z8	X9	Y9	Z9	X10	Y10	Z10	X11	Y11	Z11	X12	Y12	Z12	X13	Y13	Z13	X14	Y14	Z14	X15	Y15	Z15	X16	Y16	Z16	X17	Y17	Z17	X18	Y18	Z18	X19	Y19	Z19	X20	Y20	Z20	X21	Y21	Z21	X22	Y22	Z22	X23	Y23	Z23	X24	Y24	Z24

62	0.244	-1.356228	0.068532317	-0.17309198	-0.67886281	0.038549163	-0.035901132	-1.3345027	0.20233581	-0.22333217	-0.81453498	0.053997465	0.0094489536	-1.3107229	0.2035812	-0.1436441	-0.80476002	0.079218522	-0.077740592	-1.369678	0.25762536	-0.17743805	-0.87172229	0.029128876	-0.033229323	-1.0199773	0.41331428	-0.24032792	-0.76413064	0.44805082	0.035724262	-1.0025857	0.37081474	-0.12717448	-0.7747512	0.45906524	-0.092969675	-0.95050844	0.78378999	-0.25745023	-0.86083258	0.85207468	0.11512035	-0.87239361	0.89284262	-0.20835426	-0.81577003	0.92986858	0.022203929	-1.0428277	0.93437329	-0.053412596	-0.9144721	1.392592	-0.23249111	-0.92419465	1.390785	0.087754582	-1.0002815	1.4150471	-0.07659364	-0.95453774	1.0378587	-0.28107357	-1.0514697	1.0738459	0.13259903	-0.71746883	0.97655602	-0.2266726	-1.0133499	0.85695796	0.23114516
63	0.248	-1.343961	0.070587456	-0.17454526	-0.67875898	0.038516972	-0.036046283	-1.3238342	0.20510913	-0.22287036	-0.81442559	0.054014086	0.0093952965	-1.2992494	0.20563469	-0.14338917	-0.80450441	0.079161373	-0.077968853	-1.3594583	0.25972506	-0.17605815	-0.87171571	0.029178497	-0.033269043	-1.0079073	0.41327765	-0.24050028	-0.7616489	0.44785482	0.035675424	-0.99001818	0.37132259	-0.12721851	-0.77251437	0.45859541	-0.093095657	-0.94437552	0.7844053	-0.25703343	-0.85546667	0.85226833	0.11517697	-0.86718493	0.89432869	-0.20877251	-0.81018054	0.93037665	0.022383788	-1.0371221	0.93494681	-0.05270008	-0.90912794	1.3933834	-0.23231171	-0.91825484	1.3915083	0.087877685	-0.99495557	1.4159538	-0.076218409	-0.94972083	1.0388914	-0.28116443	-1.0443247	1.0738811	0.13334378	-0.71299092	0.9757842	-0.22730973	-1.0047952	0.85684156	0.23089658
64	0.252	-1.3312844	0.072510596	-0.17588048	-0.67868064	0.038494557	-0.036157439	-1.3130024	0.20779915	-0.22233453	-0.81433465	0.054020609	0.0093512495	-1.2879211	0.20755565	-0.1429851	-0.80430881	0.079118563	-0.078142751	-1.3491897	0.26172092	-0.17479286	-0.87171065	0.029228764	-0.033287089	-0.99579145	0.41339658	-0.24060673	-0.75902386	0.44771277	0.035594101	-0.97742396	0.37195537	-0.12724645	-0.77036443	0.45815032	-0.093165793	-0.93836361	0.78518833	-0.25663363	-0.8502058	0.8524562	0.11524976	-0.86205263	0.89589383	-0.20924793	-0.80479205	0.9308846	0.022596987	-1.0314888	0.93558223	-0.052149595	-0.90385273	1.3942217	-0.23214842	-0.91243515	1.3922734	0.088008657	-0.98967264	1.4168698	-0.07585774	-0.94496061	1.0399554	-0.28125312	-1.037277	1.0739198	0.13379423	-0.70860207	0.97497036	-0.22799666	-0.99631937	0.85679377	0.23062383
65	0.256	-1.3180703	0.074354192	-0.17724521	-0.67862949	0.038479866	-0.036232363	-1.3020059	0.21035549	-0.22170636	-0.81426823	0.054025693	0.009315072	-1.2769574	0.20933298	-0.14236319	-0.80418236	0.079089794	-0.07826284	-1.3388277	0.26365055	-0.1738395	-0.87171078	0.029276653	-0.033285734	-0.983681	0.41365595	-0.24067383	-0.75633849	0.44759883	0.035511469	-0.96504884	0.37267049	-0.12724375	-0.76817566	0.45776589	-0.093204629	-0.93250139	0.78614022	-0.25624614	-0.84502626	0.85266241	0.11534842	-0.85699633	0.89750206	-0.20976479	-0.7996937	0.93140212	0.022810145	-1.0259544	0.93628186	-0.051774278	-0.89865121	1.3951093	-0.23200029	-0.90668604	1.3930933	0.088148599	-0.98442988	1.4177901	-0.075510433	-0.94026462	1.0410524	-0.2813741	-1.0305211	1.073975	0.13368105	-0.7042861	0.97411893	-0.22872897	-0.98789683	0.85682107	0.23032533
66	0.26	-1.3043579	0.076128222	-0.17865623	-0.67860833	0.038471723	-0.036268884	-1.2908291	0.212737	-0.22099252	-0.81422862	0.054036525	0.0092877319	-1.2664229	0.21098773	-0.14149897	-0.80411992	0.079074646	-0.07833623	-1.3283765	0.26546528	-0.17319258	-0.87171798	0.029323145	-0.033271879	-0.97160207	0.41405687	-0.24073899	-0.75373525	0.44749169	0.035494576	-0.95292755	0.37345953	-0.12721135	-0.76587654	0.45747046	-0.09323762	-0.92682387	0.78724514	-0.25586456	-0.83993758	0.85290555	0.11547782	-0.8520515	0.89911187	-0.21033695	-0.7948756	0.93195252	0.023013394	-1.0205359	0.93704601	-0.051556422	-0.89349884	1.3960399	-0.23185827	-0.9009824	1.393969	0.088291242	-0.97922386	1.4187074	-0.07518008	-0.93563539	1.0421787	-0.2815351	-1.0241112	1.074067	0.13301526	-0.70001801	0.97323802	-0.22949628	-0.97939007	0.85692591	0.23000913
67	0.264	-1.2902462	0.077827129	-0.18005414	-0.67861841	0.038470622	-0.036269229	-1.2794535	0.21492667	-0.22022127	-0.81421283	0.054053066	0.0092707475	-1.2559484	0.2125798	-0.14050447	-0.80411238	0.079073905	-0.078371276	-1.3179017	0.26701178	-0.17256924	-0.87173126	0.029370808	-0.033252784	-0.95949411	0.41460457	-0.24080592	-0.75126001	0.44741311	0.035615023	-0.94093455	0.37432977	-0.12715901	-0.76347511	0.45727215	-0.093248225	-0.92132884	0.788483	-0.25548015	-0.83493947	0.85319365	0.1156521	-0.84730338	0.90068003	-0.21101221	-0.79017752	0.93255913	0.023252266	-1.0152343	0.93787324	-0.051473727	-0.88835153	1.397007	-0.2317023	-0.89533399	1.3948952	0.088434275	-0.97405003	1.419619	-0.074872679	-0.93107043	1.0433302	-0.28172123	-1.017821	1.0742216	0.13228746	-0.6957815	0.97233619	-0.23028749	-0.97067445	0.85710698	0.22968628
68	0.268	-1.2758179	0.079432654	-0.18137354	-0.67865759	0.038476894	-0.036239592	-1.2678761	0.2169383	-0.21942441	-0.81421365	0.054071772	0.0092621868	-1.2447406	0.2141892	-0.13963672	-0.80415531	0.079088577	-0.07837434	-1.3074573	0.26816516	-0.17166625	-0.87174791	0.02942159	-0.033232619	-0.9472541	0.4152999	-0.2408403	-0.74879553	0.44740452	0.035955566	-0.92894251	0.37527734	-0.12709378	-0.76106749	0.45714781	-0.093161682	-0.91593772	0.78984274	-0.25507457	-0.82998411	0.85353043	0.11589816	-0.84283023	0.90217023	-0.21182635	-0.7854261	0.93323341	0.023585248	-1.0100273	0.93875951	-0.051493009	-0.88319004	1.3980102	-0.23151582	-0.88976677	1.3958726	0.088588069	-0.96890403	1.42053	-0.074594895	-0.92656401	1.0445075	-0.28191957	-1.0113684	1.0744716	0.1320821	-0.69159322	0.97141227	-0.23110418	-0.96173986	0.8573583	0.22936104
69	0.272	-1.2611075	0.080924913	-0.18259088	-0.67872181	0.038489806	-0.03618528	-1.2561193	0.21880904	-0.21862322	-0.81422278	0.054089999	0.0092574689	-1.2322744	0.21588131	-0.13909509	-0.80425001	0.079118207	-0.078347977	-1.2970081	0.26895156	-0.17046128	-0.87176581	0.029478807	-0.033213631	-0.93489538	0.41614258	-0.24082862	-0.74630406	0.44742479	0.036544213	-0.91685124	0.3762963	-0.12702671	-0.75884729	0.45704314	-0.092891079	-0.91053611	0.79131288	-0.25464273	-0.8250233	0.85391857	0.11623298	-0.83855735	0.90357383	-0.21271661	-0.78058592	0.93396992	0.024019314	-1.0048838	0.93969785	-0.051575561	-0.87808062	1.3990472	-0.23131013	-0.88429751	1.3969045	0.088767731	-0.96378116	1.4214507	-0.074351603	-0.9221111	1.0457124	-0.28213074	-1.0047049	1.074832	0.13254417	-0.68753235	0.97044881	-0.23196949	-0.95263883	0.85767354	0.22903479
70	0.276	-1.246103	0.0823089	-0.18373211	-0.67880658	0.038508489	-0.036108753	-1.2442208	0.22057941	-0.21782192	-0.81423294	0.054105803	0.0092530884	-1.2190114	0.21766019	-0.13878996	-0.80439847	0.079160564	-0.078292481	-1.2864469	0.26948793	-0.1691594	-0.87178369	0.029546632	-0.033199669	-0.92256841	0.41712053	-0.24081007	-0.74413077	0.44731756	0.037229022	-0.90451327	0.3774117	-0.12700264	-0.75703432	0.45690271	-0.092414162	-0.90508138	0.79286433	-0.25422879	-0.82010474	0.85435241	0.11662914	-0.83413636	0.90493556	-0.2134545	-0.77572325	0.93475405	0.024522132	-0.99978179	0.9406786	-0.051694666	-0.87314649	1.4001103	-0.2311195	-0.87892507	1.3979858	0.0889812	-0.95867617	1.4223931	-0.074141286	-0.91770903	1.0469446	-0.28235883	-0.99792168	1.0752655	0.13337847	-0.68373643	0.96941862	-0.23292628	-0.94339056	0.85804786	0.2287097
71	0.28	-1.2307891	0.083614254	-0.18484348	-0.6789081	0.038532381	-0.036011463	-1.2322027	0.22227043	-0.21701405	-0.81423903	0.054117747	0.0092483959	-1.2059104	0.2194427	-0.13845299	-0.80459351	0.079213135	-0.078211591	-1.2756688	0.26985974	-0.16794064	-0.87180003	0.029624825	-0.033196964	-0.91036985	0.4182017	-0.24082248	-0.74286922	0.44696326	0.037709252	-0.89179094	0.37867875	-0.12708668	-0.75559798	0.45672644	-0.091845752	-0.89965114	0.79445037	-0.25390446	-0.81539379	0.85481241	0.11700247	-0.82907787	0.90634876	-0.21372258	-0.77090108	0.93557621	0.025069583	-0.99471039	0.94169293	-0.051840484	-0.86840601	1.4011986	-0.2309627	-0.87363974	1.3991054	0.089226331	-0.95358254	1.4233677	-0.073956393	-0.91335586	1.0482028	-0.28260301	-0.99097548	1.0756672	0.1341665	-0.68030494	0.96830216	-0.2340109	-0.93398313	0.85847817	0.22838095
